<?xml version="1.0" encoding="UTF-8"?>
<svg xmlns="http://www.w3.org/2000/svg" width="240" height="240" viewBox="0 0 240 240" role="img" aria-label="Hand pattern 01001">

  <defs>
    <linearGradient id="bgGrad" x1="0" y1="0" x2="240" y2="240" gradientUnits="userSpaceOnUse">
      <stop offset="0%" stop-color="#121A30"/>
      <stop offset="45%" stop-color="#070B18"/>
      <stop offset="100%" stop-color="#050810"/>
    </linearGradient>
    <radialGradient id="ambientGlow" cx="120" cy="120" r="90" gradientUnits="userSpaceOnUse">
      <stop offset="0%" stop-color="#1A1040" stop-opacity="0.55"/>
      <stop offset="55%" stop-color="#121A30" stop-opacity="0.18"/>
      <stop offset="100%" stop-color="#070B18" stop-opacity="0"/>
    </radialGradient>
    <radialGradient id="palmGrad" cx="112" cy="158" r="82" gradientUnits="userSpaceOnUse">
      <stop offset="0%" stop-color="#6B8098"/>
      <stop offset="40%" stop-color="#52657A"/>
      <stop offset="72%" stop-color="#3B4A5E"/>
      <stop offset="100%" stop-color="#2A3544"/>
    </radialGradient>
    <linearGradient id="wristGrad" x1="120" y1="216" x2="120" y2="242" gradientUnits="userSpaceOnUse">
      <stop offset="0%" stop-color="#3B4A5E"/>
      <stop offset="100%" stop-color="#243044"/>
    </linearGradient>
    <linearGradient id="nailGrad" x1="0" y1="0" x2="0" y2="1">
      <stop offset="0%" stop-color="#FFFFFF"/>
      <stop offset="100%" stop-color="#F6E8DE"/>
    </linearGradient>
    <linearGradient id="badgeGrad" x1="14" y1="14" x2="92" y2="42" gradientUnits="userSpaceOnUse">
      <stop offset="0%" stop-color="#7C3AED"/>
      <stop offset="100%" stop-color="#4C1D95"/>
    </linearGradient>
    <filter id="softShadow" x="-30%" y="-30%" width="160%" height="160%">
      <feDropShadow dx="0" dy="2.5" stdDeviation="2.4" flood-color="#000000" flood-opacity="0.32"/>
    </filter>
    <filter id="palmShadow" x="-30%" y="-30%" width="160%" height="160%">
      <feDropShadow dx="0" dy="5" stdDeviation="5.5" flood-color="#000000" flood-opacity="0.38"/>
    </filter>
    <filter id="bentGlow" x="-40%" y="-40%" width="180%" height="180%">
      <feDropShadow dx="0" dy="1.5" stdDeviation="2" flood-color="#A855F7" flood-opacity="0.35"/>
      <feDropShadow dx="0" dy="3" stdDeviation="3" flood-color="#000000" flood-opacity="0.28"/>
    </filter>
    
    <linearGradient id="skinGrad0" x1="40" y1="156" x2="56" y2="100" gradientUnits="userSpaceOnUse">
      <stop offset="0%" stop-color="#B87D58"/>
      <stop offset="35%" stop-color="#CF9A72"/>
      <stop offset="70%" stop-color="#E4B896"/>
      <stop offset="100%" stop-color="#F7DCC4"/>
    </linearGradient>
    <linearGradient id="bentGrad0" x1="42" y1="156" x2="58" y2="168" gradientUnits="userSpaceOnUse">
      <stop offset="0%" stop-color="#5B21B6"/>
      <stop offset="45%" stop-color="#7C3AED"/>
      <stop offset="75%" stop-color="#A855F7"/>
      <stop offset="100%" stop-color="#C084FC"/>
    </linearGradient>
    <linearGradient id="skinGrad1" x1="76" y1="122" x2="92" y2="46" gradientUnits="userSpaceOnUse">
      <stop offset="0%" stop-color="#B87D58"/>
      <stop offset="35%" stop-color="#CF9A72"/>
      <stop offset="70%" stop-color="#E4B896"/>
      <stop offset="100%" stop-color="#F7DCC4"/>
    </linearGradient>
    <linearGradient id="bentGrad1" x1="78" y1="122" x2="94" y2="134" gradientUnits="userSpaceOnUse">
      <stop offset="0%" stop-color="#5B21B6"/>
      <stop offset="45%" stop-color="#7C3AED"/>
      <stop offset="75%" stop-color="#A855F7"/>
      <stop offset="100%" stop-color="#C084FC"/>
    </linearGradient>
    <linearGradient id="skinGrad2" x1="104" y1="112" x2="120" y2="28" gradientUnits="userSpaceOnUse">
      <stop offset="0%" stop-color="#B87D58"/>
      <stop offset="35%" stop-color="#CF9A72"/>
      <stop offset="70%" stop-color="#E4B896"/>
      <stop offset="100%" stop-color="#F7DCC4"/>
    </linearGradient>
    <linearGradient id="bentGrad2" x1="106" y1="112" x2="122" y2="124" gradientUnits="userSpaceOnUse">
      <stop offset="0%" stop-color="#5B21B6"/>
      <stop offset="45%" stop-color="#7C3AED"/>
      <stop offset="75%" stop-color="#A855F7"/>
      <stop offset="100%" stop-color="#C084FC"/>
    </linearGradient>
    <linearGradient id="skinGrad3" x1="128" y1="116" x2="144" y2="38" gradientUnits="userSpaceOnUse">
      <stop offset="0%" stop-color="#B87D58"/>
      <stop offset="35%" stop-color="#CF9A72"/>
      <stop offset="70%" stop-color="#E4B896"/>
      <stop offset="100%" stop-color="#F7DCC4"/>
    </linearGradient>
    <linearGradient id="bentGrad3" x1="130" y1="116" x2="146" y2="128" gradientUnits="userSpaceOnUse">
      <stop offset="0%" stop-color="#5B21B6"/>
      <stop offset="45%" stop-color="#7C3AED"/>
      <stop offset="75%" stop-color="#A855F7"/>
      <stop offset="100%" stop-color="#C084FC"/>
    </linearGradient>
    <linearGradient id="skinGrad4" x1="150" y1="128" x2="166" y2="66" gradientUnits="userSpaceOnUse">
      <stop offset="0%" stop-color="#B87D58"/>
      <stop offset="35%" stop-color="#CF9A72"/>
      <stop offset="70%" stop-color="#E4B896"/>
      <stop offset="100%" stop-color="#F7DCC4"/>
    </linearGradient>
    <linearGradient id="bentGrad4" x1="152" y1="128" x2="168" y2="140" gradientUnits="userSpaceOnUse">
      <stop offset="0%" stop-color="#5B21B6"/>
      <stop offset="45%" stop-color="#7C3AED"/>
      <stop offset="75%" stop-color="#A855F7"/>
      <stop offset="100%" stop-color="#C084FC"/>
    </linearGradient>
  </defs>

  <rect width="240" height="240" rx="20" fill="url(#bgGrad)"/>
  <ellipse cx="120" cy="118" rx="88" ry="92" fill="url(#ambientGlow)" opacity="0.55"/>
  <ellipse cx="120" cy="198" rx="58" ry="11" fill="#000000" opacity="0.2"/>

  <path d="M 78.0 216.0 C 92.0 226.0 148.0 226.0 162.0 216.0 L 156.0 236.0 C 138.0 242.0 102.0 242.0 84.0 236.0 Z" fill="url(#wristGrad)" opacity="0.95"/>
  <path d="M 90.0 224.0 Q 120.0 228.0 150.0 224.0" fill="none" stroke="#334155" stroke-width="1" opacity="0.45"/>
  <path d="M 44.0 178.0 C 34.0 148.0 70.0 122.0 120.0 120.0 C 170.0 122.0 206.0 148.0 196.0 178.0 C 190.0 204.0 156.0 216.0 120.0 218.0 C 84.0 216.0 50.0 204.0 44.0 178.0 Z" fill="url(#palmGrad)" stroke="#55657A" stroke-width="1.3" filter="url(#palmShadow)"/>

  <path d="M 90.0 172.0 Q 120.0 180.0 150.0 172.0" fill="none" stroke="#1E293B" stroke-width="1.3" stroke-linecap="round" opacity="0.5"/>
  <path d="M 100.0 158.0 Q 120.0 164.0 140.0 158.0" fill="none" stroke="#64748B" stroke-width="0.9" stroke-linecap="round" opacity="0.35"/>
  <ellipse cx="94.0" cy="168.0" rx="10" ry="7" fill="#1E293B" opacity="0.18"/>
  <ellipse cx="146.0" cy="168.0" rx="10" ry="7" fill="#1E293B" opacity="0.18"/>
  <ellipse cx="120.0" cy="162.0" rx="18" ry="10" fill="#6B8098" opacity="0.08"/>
  <path d="M 163.9 129.0 C 165.9 119.1 169.9 115.5 167.9 105.0 A 6.0 6.0 0 0 1 156.1 103.0 C 154.1 112.9 150.1 116.5 152.1 127.0 A 6.0 6.0 0 0 1 163.9 129.0 Z" fill="url(#bentGrad4)" stroke="#6D28D9" stroke-width="1.1" stroke-linejoin="round" filter="url(#bentGlow)"/>
  <ellipse cx="158.6" cy="116.0" rx="2.6" ry="13.4" fill="#DDD6FE" opacity="0.18" transform="rotate(-170.5 160.0 116.0)"/>
  <circle cx="162.0" cy="104.0" r="2.2" fill="#5B21B6" opacity="0.55"/>
  <path d="M 157.5 106.8 C 155.8 99.9 165.8 131.8 167.5 122.8 A 5.3 5.3 0 0 1 176.5 117.2 C 178.2 124.1 168.2 92.2 166.5 101.2 A 5.3 5.3 0 0 1 157.5 106.8 Z" fill="url(#bentGrad4)" stroke="#6D28D9" stroke-width="1.1" stroke-linejoin="round" filter="url(#bentGlow)"/>
  <ellipse cx="165.7" cy="112.0" rx="2.3" ry="10.4" fill="#DDD6FE" opacity="0.18" transform="rotate(-32.0 167.0 112.0)"/>
  <circle cx="172.0" cy="120.0" r="1.9" fill="#5B21B6" opacity="0.55"/>
  <path d="M 168.0 120.9 C 166.1 113.6 170.1 147.1 172.0 138.9 A 4.1 4.1 0 0 1 180.0 137.1 C 181.9 144.4 177.9 110.9 176.0 119.1 A 4.1 4.1 0 0 1 168.0 120.9 Z" fill="url(#bentGrad4)" stroke="#6D28D9" stroke-width="1.1" stroke-linejoin="round" filter="url(#bentGlow)"/>
  <ellipse cx="173.0" cy="129.0" rx="1.8" ry="10.1" fill="#DDD6FE" opacity="0.18" transform="rotate(-12.5 174.0 129.0)"/>
  <circle cx="176.0" cy="138.0" r="1.5" fill="#5B21B6" opacity="0.55"/>
  <circle cx="176.0" cy="138.0" r="1.9" fill="#DDD6FE" opacity="0.35"/>
  <path d="M 143.5 116.2 C 145.5 105.1 146.2 100.9 144.2 89.7 A 7.5 7.5 0 0 1 129.2 89.3 C 127.2 100.4 126.5 104.6 128.5 115.8 A 7.5 7.5 0 0 1 143.5 116.2 Z" fill="url(#skinGrad3)" stroke="#A56F4D" stroke-width="1.1" stroke-linejoin="round" filter="url(#softShadow)"/>
  <ellipse cx="134.6" cy="102.7" rx="3.3" ry="14.6" fill="#FFF1E6" opacity="0.22" transform="rotate(-178.4 136.4 102.7)"/>
  <path d="M 132.8 102.7 Q 136.4 103.7 140.0 102.7" fill="none" stroke="#B07852" stroke-width="0.9" stroke-linecap="round" opacity="0.42"/>
  <circle cx="136.7" cy="89.5" r="2.7" fill="#8F6044" opacity="0.55"/>
  <path d="M 143.3 89.7 C 145.3 79.3 146.3 75.4 144.3 64.8 A 6.6 6.6 0 0 1 131.2 64.3 C 129.2 74.7 128.1 78.6 130.1 89.2 A 6.6 6.6 0 0 1 143.3 89.7 Z" fill="url(#skinGrad3)" stroke="#A56F4D" stroke-width="1.1" stroke-linejoin="round" filter="url(#softShadow)"/>
  <ellipse cx="135.7" cy="77.0" rx="2.9" ry="13.7" fill="#FFF1E6" opacity="0.22" transform="rotate(-177.7 137.2 77.0)"/>
  <path d="M 134.1 77.0 Q 137.2 78.0 140.4 77.0" fill="none" stroke="#B07852" stroke-width="0.9" stroke-linecap="round" opacity="0.42"/>
  <circle cx="137.8" cy="64.5" r="2.4" fill="#8F6044" opacity="0.55"/>
  <path d="M 143.3 64.6 C 145.3 53.5 145.8 49.3 143.8 38.1 A 5.5 5.5 0 0 1 132.7 37.9 C 130.7 49.0 130.2 53.2 132.2 64.4 A 5.5 5.5 0 0 1 143.3 64.6 Z" fill="url(#skinGrad3)" stroke="#A56F4D" stroke-width="1.1" stroke-linejoin="round" filter="url(#softShadow)"/>
  <ellipse cx="136.7" cy="51.3" rx="2.4" ry="14.6" fill="#FFF1E6" opacity="0.22" transform="rotate(-178.9 138.0 51.3)"/>
  <circle cx="138.3" cy="38.0" r="2.0" fill="#8F6044" opacity="0.55"/>

  <ellipse cx="138.3" cy="41.0" rx="3.5" ry="2.2"
           fill="url(#nailGrad)" transform="rotate(-178.9 138.3 41.0)"/>
  <ellipse cx="137.3" cy="39.0" rx="1.2" ry="0.6"
           fill="#FFFFFF" opacity="0.55" transform="rotate(-178.9 138.3 39.0)"/>
  <path d="M 120.0 112.0 C 122.0 100.0 122.0 95.4 120.0 83.4 A 8.0 8.0 0 0 1 104.0 83.4 C 102.0 95.4 102.0 100.0 104.0 112.0 A 8.0 8.0 0 0 1 120.0 112.0 Z" fill="url(#skinGrad2)" stroke="#A56F4D" stroke-width="1.1" stroke-linejoin="round" filter="url(#softShadow)"/>
  <ellipse cx="110.1" cy="97.7" rx="3.5" ry="15.7" fill="#FFF1E6" opacity="0.22" transform="rotate(-180.0 112.0 97.7)"/>
  <path d="M 108.2 97.7 Q 112.0 98.7 115.8 97.7" fill="none" stroke="#B07852" stroke-width="0.9" stroke-linecap="round" opacity="0.42"/>
  <circle cx="112.0" cy="83.4" r="2.9" fill="#8F6044" opacity="0.55"/>
  <path d="M 119.0 83.4 C 121.0 72.2 121.0 67.8 119.0 56.6 A 7.0 7.0 0 0 1 105.0 56.6 C 103.0 67.8 103.0 72.2 105.0 83.4 A 7.0 7.0 0 0 1 119.0 83.4 Z" fill="url(#skinGrad2)" stroke="#A56F4D" stroke-width="1.1" stroke-linejoin="round" filter="url(#softShadow)"/>
  <ellipse cx="110.3" cy="70.0" rx="3.1" ry="14.8" fill="#FFF1E6" opacity="0.22" transform="rotate(-180.0 112.0 70.0)"/>
  <path d="M 108.6 70.0 Q 112.0 71.0 115.4 70.0" fill="none" stroke="#B07852" stroke-width="0.9" stroke-linecap="round" opacity="0.42"/>
  <circle cx="112.0" cy="56.6" r="2.5" fill="#8F6044" opacity="0.55"/>
  <path d="M 117.9 56.6 C 119.9 44.6 119.9 40.0 117.9 28.0 A 5.9 5.9 0 0 1 106.1 28.0 C 104.1 40.0 104.1 44.6 106.1 56.6 A 5.9 5.9 0 0 1 117.9 56.6 Z" fill="url(#skinGrad2)" stroke="#A56F4D" stroke-width="1.1" stroke-linejoin="round" filter="url(#softShadow)"/>
  <ellipse cx="110.6" cy="42.3" rx="2.6" ry="15.7" fill="#FFF1E6" opacity="0.22" transform="rotate(-180.0 112.0 42.3)"/>
  <circle cx="112.0" cy="28.0" r="2.1" fill="#8F6044" opacity="0.55"/>

  <ellipse cx="112.0" cy="31.0" rx="3.7" ry="2.4"
           fill="url(#nailGrad)" transform="rotate(-180.0 112.0 31.0)"/>
  <ellipse cx="111.0" cy="29.0" rx="1.3" ry="0.7"
           fill="#FFFFFF" opacity="0.55" transform="rotate(-180.0 112.0 29.0)"/>
  <path d="M 91.4 120.8 C 93.4 110.2 89.4 106.7 87.4 96.8 A 7.5 7.5 0 0 1 72.6 99.2 C 70.6 109.8 74.6 113.3 76.6 123.2 A 7.5 7.5 0 0 1 91.4 120.8 Z" fill="url(#bentGrad1)" stroke="#6D28D9" stroke-width="1.1" stroke-linejoin="round" filter="url(#bentGlow)"/>
  <ellipse cx="80.2" cy="110.0" rx="3.3" ry="13.4" fill="#DDD6FE" opacity="0.18" transform="rotate(-189.5 82.0 110.0)"/>
  <circle cx="80.0" cy="98.0" r="2.7" fill="#5B21B6" opacity="0.55"/>
  <path d="M 74.4 94.5 C 72.7 85.5 62.7 117.4 64.4 110.5 A 6.6 6.6 0 0 1 75.6 117.5 C 77.3 126.5 87.3 94.6 85.6 101.5 A 6.6 6.6 0 0 1 74.4 94.5 Z" fill="url(#bentGrad1)" stroke="#6D28D9" stroke-width="1.1" stroke-linejoin="round" filter="url(#bentGlow)"/>
  <ellipse cx="73.4" cy="106.0" rx="2.9" ry="10.4" fill="#DDD6FE" opacity="0.18" transform="rotate(32.0 75.0 106.0)"/>
  <circle cx="70.0" cy="114.0" r="2.4" fill="#5B21B6" opacity="0.55"/>
  <path d="M 65.0 112.9 C 63.1 104.7 59.1 138.2 61.0 130.9 A 5.1 5.1 0 0 1 71.0 133.1 C 72.9 141.3 76.9 107.8 75.0 115.1 A 5.1 5.1 0 0 1 65.0 112.9 Z" fill="url(#bentGrad1)" stroke="#6D28D9" stroke-width="1.1" stroke-linejoin="round" filter="url(#bentGlow)"/>
  <ellipse cx="66.8" cy="123.0" rx="2.2" ry="10.1" fill="#DDD6FE" opacity="0.18" transform="rotate(12.5 68.0 123.0)"/>
  <circle cx="66.0" cy="132.0" r="1.8" fill="#5B21B6" opacity="0.55"/>
  <circle cx="66.0" cy="132.0" r="2.4" fill="#DDD6FE" opacity="0.35"/>
  <path d="M 57.9 154.8 C 59.9 146.6 57.7 143.6 55.7 135.8 A 10.0 10.0 0 0 1 35.9 138.1 C 33.9 146.4 36.1 149.3 38.1 157.2 A 10.0 10.0 0 0 1 57.9 154.8 Z" fill="url(#skinGrad0)" stroke="#A56F4D" stroke-width="1.1" stroke-linejoin="round" filter="url(#softShadow)"/>
  <ellipse cx="44.5" cy="146.5" rx="4.4" ry="10.5" fill="#FFF1E6" opacity="0.22" transform="rotate(-186.6 46.9 146.5)"/>
  <path d="M 42.1 146.5 Q 46.9 147.5 51.7 146.5" fill="none" stroke="#B07852" stroke-width="0.9" stroke-linecap="round" opacity="0.42"/>
  <circle cx="45.8" cy="137.0" r="3.6" fill="#8F6044" opacity="0.55"/>
  <path d="M 54.6 136.3 C 56.6 128.6 55.3 125.8 53.3 118.4 A 8.8 8.8 0 0 1 35.7 119.7 C 33.7 127.4 35.0 130.2 37.0 137.6 A 8.8 8.8 0 0 1 54.6 136.3 Z" fill="url(#skinGrad0)" stroke="#A56F4D" stroke-width="1.1" stroke-linejoin="round" filter="url(#softShadow)"/>
  <ellipse cx="43.0" cy="128.0" rx="3.9" ry="9.9" fill="#FFF1E6" opacity="0.22" transform="rotate(-184.2 45.1 128.0)"/>
  <path d="M 40.9 128.0 Q 45.1 129.0 49.4 128.0" fill="none" stroke="#B07852" stroke-width="0.9" stroke-linecap="round" opacity="0.42"/>
  <circle cx="44.5" cy="119.0" r="3.2" fill="#8F6044" opacity="0.55"/>
  <path d="M 51.9 118.6 C 53.9 110.5 52.8 107.5 50.8 99.6 A 7.4 7.4 0 0 1 36.1 100.4 C 34.1 108.5 35.1 111.5 37.1 119.4 A 7.4 7.4 0 0 1 51.9 118.6 Z" fill="url(#skinGrad0)" stroke="#A56F4D" stroke-width="1.1" stroke-linejoin="round" filter="url(#softShadow)"/>
  <ellipse cx="42.2" cy="109.5" rx="3.3" ry="10.5" fill="#FFF1E6" opacity="0.22" transform="rotate(-183.2 44.0 109.5)"/>
  <circle cx="43.4" cy="100.0" r="2.7" fill="#8F6044" opacity="0.55"/>

  <ellipse cx="43.4" cy="103.0" rx="4.6" ry="3.0"
           fill="url(#nailGrad)" transform="rotate(-183.2 43.4 103.0)"/>
  <ellipse cx="42.4" cy="101.0" rx="1.6" ry="0.8"
           fill="#FFFFFF" opacity="0.55" transform="rotate(-183.2 43.4 101.0)"/>

  <rect x="14" y="14" width="78" height="28" rx="14" fill="url(#badgeGrad)" opacity="0.22"/>
  <rect x="14" y="14" width="78" height="28" rx="14" fill="none" stroke="#7C3AED" stroke-width="1" opacity="0.35"/>
  <text x="53" y="33" text-anchor="middle" font-family="Consolas, monospace" font-size="13" font-weight="700" fill="#E9D5FF">01001</text>
  <rect x="34.0" y="214" width="28.0" height="16" rx="8" fill="#E2E8F0" opacity="0.12"/>
  <text x="48.0" y="226" text-anchor="middle" font-family="Segoe UI, Arial, sans-serif" font-size="10" font-weight="700" fill="#E2E8F0">T:0</text>
  <rect x="70.0" y="214" width="28.0" height="16" rx="8" fill="#D8B4FE" opacity="0.12"/>
  <text x="84.0" y="226" text-anchor="middle" font-family="Segoe UI, Arial, sans-serif" font-size="10" font-weight="700" fill="#D8B4FE">I:1</text>
  <rect x="98.0" y="214" width="28.0" height="16" rx="8" fill="#E2E8F0" opacity="0.12"/>
  <text x="112.0" y="226" text-anchor="middle" font-family="Segoe UI, Arial, sans-serif" font-size="10" font-weight="700" fill="#E2E8F0">M:0</text>
  <rect x="122.0" y="214" width="28.0" height="16" rx="8" fill="#E2E8F0" opacity="0.12"/>
  <text x="136.0" y="226" text-anchor="middle" font-family="Segoe UI, Arial, sans-serif" font-size="10" font-weight="700" fill="#E2E8F0">R:0</text>
  <rect x="144.0" y="214" width="28.0" height="16" rx="8" fill="#D8B4FE" opacity="0.12"/>
  <text x="158.0" y="226" text-anchor="middle" font-family="Segoe UI, Arial, sans-serif" font-size="10" font-weight="700" fill="#D8B4FE">P:1</text>
</svg>
